<?xml version="1.0" encoding="UTF-8"?>
<svg width="24px" height="23px" viewBox="0 0 24 23" version="1.1" xmlns="http://www.w3.org/2000/svg" xmlns:xlink="http://www.w3.org/1999/xlink">
    <title>Mask</title>
    <g id="Final" stroke="none" stroke-width="1" fill="none" fill-rule="evenodd">
        <g id="1_Main_list-Copy" transform="translate(-754.000000, -1839.000000)" fill="#FF2424" fill-rule="nonzero">
            <path d="M763.374704,1840.57494 C764.131092,1839.14059 765.919514,1838.58448 767.369258,1839.33284 C767.906307,1839.61006 768.344489,1840.04359 768.624689,1840.57494 L768.624689,1840.57494 L777.663594,1857.71561 C778.419982,1859.14997 777.857906,1860.91941 776.408163,1861.66777 C775.985349,1861.88602 775.515504,1862 775.038602,1862 L775.038602,1862 L756.960791,1862 C755.325591,1862 754,1860.68848 754,1859.07064 C754,1858.5988 754.1152,1858.13394 754.335799,1857.71561 L754.335799,1857.71561 Z M766.433671,1840.82857 C765.872974,1840.61152 765.225351,1840.84301 764.940489,1841.3832 L764.940489,1841.3832 L755.901584,1858.52387 C755.81257,1858.69267 755.766086,1858.88025 755.766086,1859.07064 C755.766086,1859.72345 756.300974,1860.25266 756.960791,1860.25266 L756.960791,1860.25266 L775.038602,1860.25266 C775.231036,1860.25266 775.420622,1860.20667 775.591232,1860.1186 C776.176216,1859.81663 776.403018,1859.10265 776.097809,1858.52387 L776.097809,1858.52387 L767.058904,1841.3832 C766.945841,1841.1688 766.76903,1840.99386 766.552326,1840.882 L766.552326,1840.882 Z M766.00653,1856 C766.542425,1856 767,1856.45452 767,1857 C767,1857.53246 766.542467,1858 766.00653,1858 C765.43137,1858 765,1857.53246 765,1857 C765,1856.45452 765.431412,1856 766.00653,1856 Z M766.006891,1847 C766.544856,1847 767,1847.34247 767,1847.94946 C767,1849.80163 766.806926,1852.46309 766.806926,1854.31521 C766.806926,1854.79769 766.337957,1855 766.006935,1855 C765.565573,1855 765.193118,1854.79769 765.193074,1854.31521 C765.193074,1852.46304 765,1849.80158 765,1847.94946 C765,1847.34242 765.441362,1847 766.006891,1847 Z" id="Mask"></path>
        </g>
    </g>
</svg>