<svg xmlns="http://www.w3.org/2000/svg" width="18" height="23" viewBox="0 0 18 23"><g><g><path d="M1.5 18.01h15v-1.474c-1.292-.308-2.25-1.394-2.25-2.682V9.066c0-2.696-2.347-4.898-5.231-4.907h-.02c-1.398 0-2.713.501-3.705 1.413-.996.917-1.544 2.136-1.544 3.434v4.848c0 1.288-.958 2.374-2.25 2.682zm6.375 1.74c0 .569.505 1.032 1.125 1.032s1.125-.463 1.125-1.032a.952.952 0 0 0-.064-.344H7.94a.951.951 0 0 0-.064.344zM9 1.386c-.414 0-.75.309-.75.688 0 .379.336.687.75.687s.75-.308.75-.687c0-.38-.336-.688-.75-.688zM2.25 13.862V9.01c0-1.67.705-3.24 1.985-4.418A6.84 6.84 0 0 1 7.01 3.047a1.942 1.942 0 0 1-.259-.968C6.75.933 7.76 0 9 0s2.25.933 2.25 2.08c0 .35-.095.681-.262.972 2.753.795 4.762 3.195 4.762 6.018v4.792c0 .764.673 1.386 1.5 1.386.414 0 .75.31.75.693v2.772c0 .383-.336.693-.75.693h-5.652c.018.114.027.23.027.347 0 1.337-1.178 2.426-2.625 2.426s-2.625-1.089-2.625-2.426c0-.117.01-.233.027-.347H.75c-.414 0-.75-.31-.75-.693v-2.772c0-.383.336-.693.75-.693.827 0 1.5-.622 1.5-1.386z"/></g></g></svg>