<svg xmlns="http://www.w3.org/2000/svg" xmlns:xlink="http://www.w3.org/1999/xlink" width="15" height="13" viewBox="0 0 15 13"><defs><linearGradient id="a" x1="0.816" y1="-0.283" x2="0.816" y2="1" gradientUnits="objectBoundingBox"><stop offset="0" stop-color="#d8d8d8" stop-opacity="0.635"/><stop offset="1" stop-color="#fbfbfb" stop-opacity="0.012"/><stop offset="1" stop-color="#fcfcfc" stop-opacity="0"/></linearGradient><linearGradient id="b" x1="0.5" y1="0.325" x2="0.5" y2="1.128" gradientUnits="objectBoundingBox"><stop offset="0" stop-opacity="0"/><stop offset="1" stop-opacity="0.502"/></linearGradient></defs><path d="M0,0H14a1,1,0,0,1,1,1V9a1,1,0,0,1-1,1H1A1,1,0,0,1,0,9V0A0,0,0,0,1,0,0Z" transform="translate(0 3)" fill="none"/><path d="M0,0H14a1,1,0,0,1,1,1V9a1,1,0,0,1-1,1H1A1,1,0,0,1,0,9V0A0,0,0,0,1,0,0Z" transform="translate(0 3)" fill="#96b8e1"/><path d="M0,0H14a1,1,0,0,1,1,1V9a1,1,0,0,1-1,1H1A1,1,0,0,1,0,9V0A0,0,0,0,1,0,0Z" transform="translate(0 3)" fill="url(#a)" style="mix-blend-mode:soft-light;isolation:isolate"/><path d="M2,0H6A2,2,0,0,1,8,2V3A0,0,0,0,1,8,3H0A0,0,0,0,1,0,3V2A2,2,0,0,1,2,0Z" fill="#98bce1"/><path d="M2,0H6A2,2,0,0,1,8,2V3A0,0,0,0,1,8,3H0A0,0,0,0,1,0,3V2A2,2,0,0,1,2,0Z" fill="none"/><path d="M2,0H6A2,2,0,0,1,8,2V3A0,0,0,0,1,8,3H0A0,0,0,0,1,0,3V2A2,2,0,0,1,2,0Z" fill="url(#b)" style="mix-blend-mode:soft-light;isolation:isolate"/></svg>