<?xml version="1.0" encoding="UTF-8"?>
<svg width="23px" height="22px" viewBox="0 0 23 22" version="1.1" xmlns="http://www.w3.org/2000/svg" xmlns:xlink="http://www.w3.org/1999/xlink">
    <title>953810 copy</title>
    <defs>
        <filter color-interpolation-filters="auto" id="filter-1">
            <feColorMatrix in="SourceGraphic" type="matrix" values="0 0 0 0 0.164706 0 0 0 0 0.247059 0 0 0 0 0.392157 0 0 0 1.000000 0"></feColorMatrix>
        </filter>
    </defs>
    <g id="Final" stroke="none" stroke-width="1" fill="none" fill-rule="evenodd">
        <g id="1_Main_list-Copy" transform="translate(-754.000000, -1903.000000)">
            <g id="953810-copy" transform="translate(754.000000, 1903.000000)" filter="url(#filter-1)">
                <g id="953810" fill="#000000" fill-rule="nonzero">
                    <path d="M22.9171641,17.3661627 L21.5813223,13.5884921 C22.2252324,12.3094365 22.5655156,10.8869444 22.5678066,9.45567857 C22.5717598,6.96701587 21.580873,4.61393254 19.7776191,2.8299246 C17.9740059,1.04556746 15.5705957,0.0411190476 13.0100488,0.00170238095 C10.3549414,-0.0390674603 7.85926172,0.942289683 5.98300977,2.76540873 C4.17382617,4.52335714 3.17036133,6.84090873 3.13860156,9.31748016 C1.35547266,10.6220278 0.302998047,12.6559365 0.306457031,14.8283929 C0.308119141,15.8450198 0.543599609,16.8555794 0.989808594,17.7694087 L0.0696738281,20.3713452 C-0.0884960938,20.8186349 0.0270429687,21.3042937 0.371234375,21.638746 C0.613453125,21.8741548 0.932802734,21.9994762 1.26122656,21.9994762 C1.39940625,21.9994762 1.53920313,21.9773016 1.67554102,21.9317738 L4.35328906,21.0376746 C5.29372852,21.4712579 6.33371484,21.7000754 7.37994531,21.7016905 C7.38371875,21.7016905 7.3873125,21.7016905 7.39108594,21.7016905 C9.66008984,21.7016032 11.7691719,20.6525437 13.1068105,18.8773968 C14.4988047,18.8417778 15.8760645,18.5143532 17.1211641,17.9224921 L21.0088828,19.2205794 C21.1708711,19.2746627 21.3369922,19.3010278 21.5011816,19.3010278 C21.8914629,19.3010278 22.2709629,19.1520913 22.5588672,18.8722897 C22.9678359,18.4748492 23.1051172,17.8977421 22.9171641,17.3661627 Z M7.39099609,20.3713889 C7.38807617,20.3713889 7.38497656,20.3713889 7.38205664,20.3713889 C6.45603711,20.3700357 5.53644141,20.1482024 4.72286133,19.7299405 C4.55557227,19.6439921 4.35917383,19.6291071 4.18029492,19.6888214 L1.43453516,20.605619 L2.3780293,17.9375952 C2.43948242,17.7637341 2.42420898,17.5728929 2.33571289,17.410381 C1.90527148,16.6197778 1.67697852,15.726246 1.67554102,14.8263849 C1.67325,13.3789683 2.25269727,12.0070675 3.266,10.9797897 C3.59698437,12.9404087 4.55862695,14.7471151 6.04922461,16.1697817 C7.52881641,17.5819286 9.38867188,18.4810476 11.3954219,18.7749921 C10.3358047,19.7898294 8.90746875,20.3713889 7.39099609,20.3713889 Z M21.5907109,17.9316151 C21.5517637,17.9694603 21.505584,17.9797619 21.4536543,17.9623889 L17.2917324,16.5727222 C17.2194531,16.5485833 17.1442539,16.536623 17.0693242,16.536623 C16.9588613,16.536623 16.8488027,16.5625952 16.7492109,16.6138413 C15.5608926,17.2246905 14.2180879,17.5486667 12.8658496,17.5506746 C12.8614023,17.5506746 12.8573594,17.5506746 12.8529121,17.5506746 C8.32195703,17.5506746 4.57938086,13.9741905 4.5075957,9.5724881 C4.47143359,7.35568254 5.33923438,5.27227381 6.95107617,3.70603968 C8.56291797,2.13980556 10.7073535,1.29686508 12.9883965,1.33178571 C17.5226309,1.40167063 21.2057754,5.04507143 21.1987676,9.45358333 C21.1966563,10.7675595 20.863291,12.0724127 20.2346992,13.2270198 C20.1462031,13.3895317 20.1309297,13.580373 20.1923828,13.7542341 L21.6224707,17.7983929 C21.6403047,17.8490278 21.6296133,17.8938571 21.5907109,17.9316151 Z" id="Shape"></path>
                    <path d="M16.9306953,5.91520635 L8.77467969,5.91520635 C8.39661719,5.91520635 8.09016016,6.21303571 8.09016016,6.58035714 C8.09016016,6.94772222 8.39666211,7.24550794 8.77467969,7.24550794 L16.9306953,7.24550794 C17.3087578,7.24550794 17.6152148,6.94767857 17.6152148,6.58035714 C17.6152148,6.21303571 17.3087578,5.91520635 16.9306953,5.91520635 Z" id="Path"></path>
                    <path d="M16.9306953,8.65084524 L8.77467969,8.65084524 C8.39661719,8.65084524 8.09016016,8.9486746 8.09016016,9.31599603 C8.09016016,9.68331746 8.39666211,9.98114683 8.77467969,9.98114683 L16.9306953,9.98114683 C17.3087578,9.98114683 17.6152148,9.68331746 17.6152148,9.31599603 C17.6152148,8.9486746 17.3087578,8.65084524 16.9306953,8.65084524 Z" id="Path"></path>
                    <path d="M13.7911953,11.3863968 L8.77463477,11.3863968 C8.39657227,11.3863968 8.09011523,11.6842262 8.09011523,12.0515476 C8.09011523,12.4189127 8.39661719,12.7166984 8.77463477,12.7166984 L13.7911504,12.7166984 C14.1692129,12.7166984 14.4756699,12.418869 14.4756699,12.0515476 C14.4756699,11.6842262 14.1692578,11.3863968 13.7911953,11.3863968 Z" id="Path"></path>
                </g>
            </g>
        </g>
    </g>
</svg>