<svg xmlns="http://www.w3.org/2000/svg" width="36" height="32">
    <path fill-rule="nonzero" d="M11.52 9.869l4.844-4.583v18.972c0 .855.732 1.548 1.636 1.548.904 0 1.636-.693 1.636-1.548V5.287l4.843 4.582c.32.302.739.453 1.157.453a1.68 1.68 0 001.157-.453 1.49 1.49 0 000-2.19L19.158.454a1.668 1.668 0 00-.12-.103L18.98.31c-.024-.017-.047-.034-.073-.05-.022-.015-.046-.027-.069-.04L18.77.182 18.7.15l-.073-.032c-.023-.01-.047-.017-.07-.025-.028-.009-.054-.019-.081-.026l-.071-.018-.084-.02-.083-.011A1.766 1.766 0 0018.01 0h-.02a1.544 1.544 0 00-.225.018c-.028.004-.057.007-.084.012-.028.005-.055.012-.082.019-.025.006-.05.01-.074.018-.026.007-.052.017-.078.025-.024.009-.049.016-.073.026l-.07.03-.075.035c-.023.011-.044.024-.065.036-.025.014-.05.027-.073.042-.023.015-.046.032-.068.048l-.06.042a1.63 1.63 0 00-.115.098l-.005.004L9.207 7.68a1.49 1.49 0 000 2.19 1.703 1.703 0 002.314 0z"/>
    <path fill-rule="nonzero" d="M34.364 15.484c-.904 0-1.637.693-1.637 1.548v11.871H3.273v-11.87c0-.856-.733-1.55-1.637-1.55-.903 0-1.636.694-1.636 1.55v13.419C0 31.307.733 32 1.636 32h32.728c.903 0 1.636-.693 1.636-1.548v-13.42c0-.855-.733-1.548-1.636-1.548z"/>
</svg>
