<svg xmlns="http://www.w3.org/2000/svg" width="21" height="16" viewBox="0 0 21 16">
    <g>
        <g>
            <g>
                <path fill="#fff" d="M4.71 1a1 1 0 0 1 1-1h7.412a1 1 0 0 1 1 1v.308a1 1 0 0 1-1 1H5.71a1 1 0 0 1-1-1z"/>
            </g>
            <g>
                <path fill="#fff" d="M0 1a1 1 0 0 1 1-1h.353a1 1 0 0 1 1 1v.308a1 1 0 0 1-1 1H1a1 1 0 0 1-1-1z"/>
            </g>
            <g>
                <path fill="#fff"
                      d="M4.71 5.62a1 1 0 0 1 1-1h7.412a1 1 0 0 1 1 1v.308a1 1 0 0 1-1 1H5.71a1 1 0 0 1-1-1z"/>
            </g>
            <g>
                <path fill="#fff" d="M0 5.62a1 1 0 0 1 1-1h.353a1 1 0 0 1 1 1v.308a1 1 0 0 1-1 1H1a1 1 0 0 1-1-1z"/>
            </g>
            <g>
                <path fill="#fff"
                      d="M4.71 10.23a1 1 0 0 1 1-1h7.412a1 1 0 0 1 1 1v.308a1 1 0 0 1-1 1H5.71a1 1 0 0 1-1-1z"/>
            </g>
            <g>
                <path fill="#fff" d="M0 10.23a1 1 0 0 1 1-1h.353a1 1 0 0 1 1 1v.308a1 1 0 0 1-1 1H1a1 1 0 0 1-1-1z"/>
            </g>
            <g>
                <path fill="#fff"
                      d="M14.704 15.005c2.924 0 5.294-2.325 5.294-5.193 0-2.867-2.37-5.192-5.294-5.192-2.924 0-5.294 2.325-5.294 5.192 0 2.868 2.37 5.193 5.294 5.193z"/>
                <path fill="none" stroke="#395fc2" stroke-miterlimit="20" stroke-width="2"
                      d="M14.704 15.005c2.924 0 5.294-2.325 5.294-5.193 0-2.867-2.37-5.192-5.294-5.192-2.924 0-5.294 2.325-5.294 5.192 0 2.868 2.37 5.193 5.294 5.193z"/>
            </g>
            <g>
                <path fill="none" stroke="#4f7cf1" stroke-linecap="round" stroke-linejoin="round" stroke-miterlimit="20"
                      stroke-width="1.4" d="M12.56 10.238v0l1.576 1.322v0l2.61-3.15v0"/>
            </g>
        </g>
    </g>
</svg>
