<?xml version="1.0" encoding="UTF-8"?>
<svg width="513px" height="387px" viewBox="0 0 513 387" version="1.1" xmlns="http://www.w3.org/2000/svg" xmlns:xlink="http://www.w3.org/1999/xlink">
    <title>4185325</title>
    <g id="Symbols" stroke="none" stroke-width="1" fill-rule="evenodd">
        <g id="4185325" fill-rule="nonzero">
            <g>
                <path d="M183.694,323.757 C179.552,323.757 176.194,327.114 176.194,331.257 L176.194,370.755 C176.194,374.898 179.552,378.255 183.694,378.255 C187.836,378.255 191.194,374.898 191.194,370.755 L191.194,331.257 C191.194,327.114 187.836,323.757 183.694,323.757 Z" id="Path"></path>
                <path d="M328.871,323.757 C324.729,323.757 321.371,327.114 321.371,331.257 L321.371,370.755 C321.371,374.898 324.729,378.255 328.871,378.255 C333.013,378.255 336.371,374.898 336.371,370.755 L336.371,331.257 C336.371,327.114 333.013,323.757 328.871,323.757 Z" id="Path"></path>
                <path d="M474.603,297.573 L449.49,287.498 L449.49,281.084 C454.42,278.344 458.846,274.779 462.571,270.571 C478.456,272.446 493.655,266.105 503.494,253.348 C513.669,240.156 515.786,223.155 509.158,207.87 L497.881,181.868 C497.033,179.914 496.45,177.853 496.146,175.745 C493.716,158.855 485.275,143.399 472.378,132.225 C459.481,121.05 442.981,114.897 425.917,114.897 C408.853,114.897 392.353,121.05 379.456,132.225 C366.56,143.399 358.118,158.854 355.688,175.745 C355.384,177.854 354.801,179.915 353.953,181.868 L342.677,207.87 C336.049,223.154 338.166,240.155 348.341,253.348 C357.045,264.633 369.941,270.922 383.796,270.921 C385.583,270.921 387.388,270.815 389.202,270.602 C392.582,274.435 396.546,277.736 400.961,280.364 L400.961,287.497 L375.849,297.573 C374.212,298.23 372.614,298.973 371.056,299.795 C366.197,290.858 359.26,283.043 350.628,277.106 L317.919,254.611 C318.108,250.48 316.456,246.319 313.091,243.464 L299.8,232.186 C298.54,231.116 297.124,230.308 295.628,229.759 L295.628,214.575 C309.677,204.385 319.639,188.903 322.559,171.073 L323.359,171.073 C337.659,171.073 349.293,159.439 349.293,145.14 C349.293,139.035 347.167,133.419 343.624,128.984 L348.985,90.873 C352.849,63.399 333.668,37.728 306.225,33.646 L305.158,33.488 C296.383,19.166 282.792,8.833 266.485,4.209 L264.522,3.652 C242.902,-2.478 219.776,1.181 201.074,13.693 C197.631,15.996 196.707,20.654 199.01,24.096 C201.313,27.538 205.97,28.463 209.414,26.159 C224.455,16.097 243.049,13.154 260.43,18.083 L262.393,18.64 C276.038,22.509 287.239,31.526 293.933,44.03 C298.538,52.633 300.571,62.094 299.984,71.558 L294.9,67.188 C290.253,63.194 283.42,63.088 278.654,66.938 L271.985,72.325 L233.916,72.325 C209.213,72.325 189.115,92.423 189.115,117.126 L189.115,119.209 C187.126,119.216 185.192,119.454 183.332,119.887 C174.853,96.017 177.244,69.123 189.988,47.124 C192.064,43.539 190.842,38.951 187.258,36.874 C183.674,34.799 179.086,36.02 177.009,39.604 C161.597,66.21 159.098,98.921 170.178,127.549 C165.899,132.175 163.278,138.356 163.278,145.14 C163.278,159.439 174.912,171.073 189.212,171.073 L190.012,171.073 C192.932,188.903 202.894,204.385 216.943,214.575 L216.943,229.759 C215.447,230.307 214.031,231.116 212.772,232.185 L199.48,243.464 C196.115,246.319 194.463,250.481 194.652,254.611 L161.943,277.106 C155.296,281.677 149.652,287.361 145.188,293.814 C142.295,292.216 139.28,290.85 136.158,289.744 L113.95,281.878 L113.95,275.967 C125.262,268.978 133.394,257.328 135.659,243.716 L139.015,243.716 C152.174,243.716 162.879,233.011 162.879,219.853 C162.879,213.945 160.717,208.537 157.148,204.365 L158.487,188.514 C160.348,165.688 150.388,144.036 131.843,130.599 C113.298,117.16 89.621,114.437 68.509,123.313 L53.56,129.598 C30.413,134.708 14.942,156.888 18.247,180.448 L21.591,204.288 C17.983,208.47 15.794,213.909 15.794,219.853 C15.794,233.011 26.499,243.716 39.658,243.716 L43.014,243.716 C45.132,256.445 52.383,267.454 62.565,274.545 L62.565,281.878 L40.357,289.743 C37.247,290.845 34.183,292.225 31.251,293.847 C27.626,295.851 26.312,300.414 28.316,304.039 C29.684,306.514 32.245,307.911 34.886,307.911 C36.113,307.911 37.358,307.609 38.508,306.973 C40.721,305.749 43.028,304.709 45.363,303.882 L64.553,297.085 C68.439,306.347 77.599,312.869 88.256,312.869 C98.913,312.869 108.073,306.347 111.959,297.085 L131.149,303.883 C133.563,304.737 135.893,305.8 138.126,307.048 C135.147,314.6 133.55,322.738 133.55,331.089 L133.55,375.583 C133.55,379.726 136.908,383.083 141.05,383.083 C145.192,383.083 148.55,379.726 148.55,375.583 L148.55,331.089 C148.55,314.453 156.734,298.893 170.441,289.466 L201.677,267.984 L214.48,285.102 C217.232,288.782 221.547,290.855 225.998,290.855 C227.384,290.855 228.784,290.654 230.153,290.237 L248.784,284.567 L248.784,378.723 C248.784,382.866 252.142,386.223 256.284,386.223 C260.426,386.223 263.784,382.866 263.784,378.723 L263.784,284.567 L282.417,290.238 C283.786,290.654 285.184,290.855 286.57,290.855 C291.02,290.855 295.336,288.781 298.088,285.102 L310.89,267.984 L342.126,289.466 C355.834,298.893 364.017,314.453 364.017,331.089 L364.017,375.583 C364.017,379.726 367.375,383.083 371.517,383.083 C375.659,383.083 379.017,379.726 379.017,375.583 L379.017,331.089 C379.017,325.182 378.216,319.381 376.696,313.817 C378.216,312.93 379.797,312.152 381.432,311.496 L403.209,302.758 C407.067,311.062 415.482,316.837 425.225,316.837 C434.968,316.837 443.383,311.063 447.241,302.759 L469.019,311.496 C482.79,317.02 491.687,330.177 491.687,345.014 L491.687,357.709 C491.687,361.852 495.045,365.209 499.187,365.209 C503.329,365.209 506.687,361.852 506.687,357.709 L506.687,345.014 C506.686,324.014 494.092,305.393 474.603,297.573 L474.603,297.573 Z M178.275,145.139 C178.275,139.143 183.128,134.263 189.112,134.21 L189.112,156.066 C183.129,156.014 178.275,151.135 178.275,145.139 Z M139.013,228.715 L136.305,228.715 L136.305,210.987 L139.013,210.987 C143.901,210.987 147.877,214.964 147.877,219.851 C147.877,224.738 143.901,228.715 139.013,228.715 L139.013,228.715 Z M30.792,219.852 C30.792,214.964 34.768,210.988 39.656,210.988 L42.364,210.988 L42.364,228.716 L39.656,228.716 C34.769,228.715 30.792,224.739 30.792,219.852 L30.792,219.852 Z M51.473,172.869 C46.498,179.739 43.49,187.65 42.629,195.987 L39.656,195.987 C38.28,195.987 36.934,196.111 35.621,196.335 L33.1,178.362 C30.858,162.382 41.49,147.348 57.304,144.135 C57.788,144.037 58.262,143.891 58.718,143.699 L74.322,137.138 C90.564,130.309 108.776,132.406 123.041,142.742 C137.306,153.08 144.968,169.734 143.538,187.27 L142.776,196.285 C141.55,196.09 140.294,195.986 139.013,195.986 L136.239,195.986 C135.593,189.627 130.208,184.647 123.681,184.647 L105.161,184.647 C91.962,184.647 78.901,180.254 68.385,172.279 L66.263,170.67 C64.035,168.98 61.169,168.246 58.406,168.658 C55.64,169.07 53.113,170.605 51.473,172.869 L51.473,172.869 Z M57.365,200.979 C57.365,195.555 58.672,190.313 61.175,185.593 C73.948,194.672 89.477,199.649 105.162,199.649 L121.305,199.649 L121.305,235.983 C121.305,253.612 106.963,267.954 89.335,267.954 C71.707,267.954 57.365,253.612 57.365,235.983 L57.365,200.979 Z M88.255,297.869 C82.359,297.869 77.563,293.072 77.563,287.177 L77.563,281.459 C81.326,282.434 85.271,282.954 89.335,282.954 C92.629,282.954 95.843,282.61 98.948,281.961 L98.948,287.177 C98.948,293.072 94.151,297.869 88.255,297.869 Z M323.453,156.066 L323.453,134.21 C329.437,134.262 334.29,139.143 334.29,145.139 C334.29,151.135 329.437,156.014 323.453,156.066 Z M334.128,88.781 L329.736,120.001 C327.724,119.49 325.619,119.215 323.452,119.207 L323.452,118.6 C323.452,106.508 319.712,94.877 312.939,85.158 C315.892,73.784 315.788,62.074 312.731,50.944 C327.218,57.127 336.418,72.504 334.128,88.781 L334.128,88.781 Z M204.113,160.182 L204.113,117.124 C204.113,100.691 217.482,87.323 233.914,87.323 L274.634,87.323 C276.349,87.323 278.012,86.735 279.346,85.658 L286.579,79.815 L293.298,85.59 C302.929,93.868 308.452,105.901 308.452,118.6 L308.452,160.181 C308.452,188.948 285.049,212.351 256.282,212.351 C227.515,212.351 204.113,188.948 204.113,160.182 L204.113,160.182 Z M256.283,227.352 C264.868,227.352 273.072,225.716 280.626,222.768 L280.626,232.378 L256.283,244.314 L231.94,232.378 L231.94,222.768 C239.493,225.715 247.698,227.352 256.283,227.352 Z M226.219,275.753 L210.063,254.152 L221.86,244.141 L248.782,257.341 L248.782,268.886 L226.219,275.753 Z M286.346,275.753 L263.783,268.887 L263.783,257.342 L290.705,244.142 L302.502,254.153 L286.346,275.753 Z M360.217,244.187 C353.427,235.383 352.014,224.039 356.438,213.839 L367.714,187.837 C369.092,184.661 370.041,181.312 370.534,177.882 C374.471,150.527 398.28,129.898 425.917,129.898 C453.554,129.898 477.363,150.527 481.299,177.882 C481.792,181.311 482.741,184.66 484.119,187.837 L495.395,213.839 C499.818,224.038 498.406,235.383 491.616,244.187 C486.588,250.705 479.463,254.718 471.643,255.681 C473.258,251.485 474.311,247.012 474.698,242.35 C475.04,238.222 471.97,234.598 467.843,234.256 C463.719,233.921 460.092,236.984 459.749,241.111 C458.304,258.558 443.443,272.225 425.917,272.225 C407.19,272.225 391.956,256.991 391.956,238.264 L391.956,202.285 C391.956,194.307 394.304,186.461 398.629,179.801 C408.334,187.209 420.297,191.446 432.517,191.769 L459.878,192.491 L459.878,209.767 C459.878,213.91 463.236,217.267 467.378,217.267 C471.52,217.267 474.878,213.91 474.878,209.767 L474.878,190.46 C474.878,183.406 469.354,177.735 462.303,177.55 L432.912,176.776 C423.395,176.524 414.088,173.077 406.705,167.072 L404.767,165.495 C402.481,163.636 399.61,162.784 396.679,163.099 C393.75,163.412 391.123,164.852 389.284,167.151 C381.333,177.085 376.953,189.563 376.953,202.288 L376.953,238.267 C376.953,244.394 378.094,250.257 380.159,255.667 C372.353,254.697 365.238,250.697 360.217,244.187 L360.217,244.187 Z M425.224,301.836 C420.115,301.836 415.958,297.68 415.958,292.57 L415.958,286.205 C419.175,286.872 422.505,287.226 425.916,287.226 C428.834,287.226 431.697,286.952 434.489,286.448 L434.489,292.571 C434.49,297.68 430.333,301.836 425.224,301.836 L425.224,301.836 Z" id="Shape"></path>
                <path d="M16.075,316.978 C12.347,315.169 7.862,316.731 6.056,320.459 C2.038,328.76 -1.77635684e-15,337.638 -1.77635684e-15,346.847 L-1.77635684e-15,370.755 C-1.77635684e-15,374.898 3.358,378.255 7.5,378.255 C11.642,378.255 15,374.898 15,370.755 L15,346.847 C15,339.921 16.533,333.243 19.558,326.996 C21.363,323.268 19.804,318.782 16.075,316.978 L16.075,316.978 Z" id="Path"></path>
            </g>
        </g>
    </g>
</svg>
