<svg xmlns="http://www.w3.org/2000/svg" xmlns:xlink="http://www.w3.org/1999/xlink" width="18.133" height="13" viewBox="0 0 18.133 13"><defs><linearGradient id="a" x1="0.5" y1="0.16" x2="0.5" y2="0.954" gradientUnits="objectBoundingBox"><stop offset="0" stop-opacity="0"/><stop offset="1" stop-opacity="0.502"/></linearGradient><linearGradient id="b" x1="0.816" y1="-0.283" x2="0.816" y2="1" gradientUnits="objectBoundingBox"><stop offset="0" stop-color="#d8d8d8" stop-opacity="0.635"/><stop offset="1" stop-color="#fbfbfb" stop-opacity="0.012"/><stop offset="1" stop-color="#fcfcfc" stop-opacity="0"/></linearGradient></defs><g transform="translate(-65 -279)"><g transform="translate(512 598.5)"><path d="M0,11.282H0V2A2,2,0,0,1,2,0H6A2,2,0,0,1,8,2V3h6a1,1,0,0,1,1,1V6H5.072a3,3,0,0,0-2.5,1.336L.206,10.891A2.008,2.008,0,0,0,0,11.282Z" transform="translate(-447.002 -319.5)" fill="#4f7fe5"/><path d="M0,11.282H0V2A2,2,0,0,1,2,0H6A2,2,0,0,1,8,2V3h6a1,1,0,0,1,1,1V6H5.072a3,3,0,0,0-2.5,1.336L.206,10.891A2.008,2.008,0,0,0,0,11.282Z" transform="translate(-447.002 -319.5)" fill="none"/><path d="M0,11.282H0V2A2,2,0,0,1,2,0H6A2,2,0,0,1,8,2V3h6a1,1,0,0,1,1,1V6H5.072a3,3,0,0,0-2.5,1.336L.206,10.891A2.008,2.008,0,0,0,0,11.282Z" transform="translate(-447.002 -319.5)" fill="url(#a)" style="mix-blend-mode:soft-light;isolation:isolate"/></g><g transform="translate(512 598.5)"><path d="M3.406.891A2,2,0,0,1,5.07,0H17.131a1,1,0,0,1,.832,1.555l-2.667,4A1,1,0,0,1,14.465,6H1.869a1,1,0,0,1-.832-1.555Z" transform="translate(-447 -312.5)" fill="none"/><path d="M3.406.891A2,2,0,0,1,5.07,0H17.131a1,1,0,0,1,.832,1.555l-2.667,4A1,1,0,0,1,14.465,6H1.869a1,1,0,0,1-.832-1.555Z" transform="translate(-447 -312.5)" fill="#3f6ada"/><path d="M3.406.891A2,2,0,0,1,5.07,0H17.131a1,1,0,0,1,.832,1.555l-2.667,4A1,1,0,0,1,14.465,6H1.869a1,1,0,0,1-.832-1.555Z" transform="translate(-447 -312.5)" fill="url(#b)" style="mix-blend-mode:soft-light;isolation:isolate"/></g></g></svg>