<svg xmlns="http://www.w3.org/2000/svg" width="16" height="16" viewBox="0 0 16 16">
    <g>
        <g>
            <path fill-rule="nonzero" d="M15.667 7.172L8.991.427a1.409 1.409 0 0 0-2.002 0L.313 7.173a1.088 1.088 0 0 0 0 1.527 1.061 1.061 0 0 0 1.512 0l.905-.914v7.06c0 .635.51 1.15 1.139 1.15h2.433v-3.207c0-.25.2-.452.447-.452h2.483a.45.45 0 0 1 .447.452v3.207h2.433c.63 0 1.139-.515 1.139-1.15v-7.06l.904.914a1.06 1.06 0 0 0 1.512 0 1.087 1.087 0 0 0 0-1.527z"/>
        </g>
    </g>
</svg>
