<svg xmlns="http://www.w3.org/2000/svg" width="16" height="16" viewBox="0 0 16 16"><g><g><path d="M8.551 9.254a.256.256 0 0 1-.274-.025.255.255 0 0 1-.108-.232l.497-1.972a1.51 1.51 0 0 0-.589-1.506 1.513 1.513 0 0 0-1.563-.142l-.512.25.548 1.123.512-.25a.256.256 0 0 1 .274.025.255.255 0 0 1 .108.232l-.496 1.972a1.51 1.51 0 0 0 .588 1.507 1.513 1.513 0 0 0 1.563.14l.425-.207-.548-1.122zM8.131 4.3a.785.785 0 1 0 .002-1.57.785.785 0 0 0-.002 1.57zm6.619 6.98c0 .344-.28.624-.625.624H9.567l-1.571 2.039-1.598-2.039H1.875a.625.625 0 0 1-.625-.624V1.89c0-.343.28-.623.625-.623h12.25c.345 0 .625.28.625.624zM14.125.02H1.875C.841.02 0 .86 0 1.891v9.388c0 1.032.841 1.872 1.875 1.872h3.914l2.215 2.826 2.179-2.826h3.942c1.034 0 1.875-.84 1.875-1.872V1.891A1.875 1.875 0 0 0 14.125.02z"/></g></g></svg>