<svg xmlns="http://www.w3.org/2000/svg" viewBox="0 0 29.11 28">
    <path id="angle-left"
          fill-rule="nonzero"
          d="M16.37,14.74l-12.84,13a1.06,1.06,0,0,1-1.49,0H2L.31,26a1.06,1.06,0,0,1,0-1.49h0L10.68,14,.31,3.53A1.06,1.06,0,0,1,.31,2h0L2,.31a1.06,1.06,0,0,1,1.49,0h0l12.84,13a1,1,0,0,1,0,1.48Z"/>
    <path id="angle-left-2" data-name="angle-left" fill-rule="nonzero"
          d="M28.8,14.74,16,27.69a1,1,0,0,1-1.48,0h0L12.74,26a1,1,0,0,1,0-1.49h0L23.1,14,12.73,3.53a1.06,1.06,0,0,1,0-1.49h0L14.47.31A1,1,0,0,1,16,.31h0l12.85,13a1,1,0,0,1,0,1.48Z"/>
</svg>
